<?xml version="1.0" encoding="utf-8"?>
<!-- Generator: Adobe Illustrator 25.4.1, SVG Export Plug-In . SVG Version: 6.00 Build 0)  -->
<svg version="1.0" id="katman_1" xmlns="http://www.w3.org/2000/svg" xmlns:xlink="http://www.w3.org/1999/xlink" x="0px" y="0px"
	 viewBox="0 0 1280 1024" style="enable-background:new 0 0 1280 1024;" xml:space="preserve">
<style type="text/css">
	.st0{fill-rule:evenodd;clip-rule:evenodd;fill:#858686;}
</style>
<path class="st0" d="M691.2,609.6H113.1l417.6-387.1c35.6-33,86.8-43.8,133.5-28.3c46.8,15.5,80,54.4,86.7,101.5l66.7,467.5
	c2,14,11.5,25,25.4,29.4c13.9,4.5,28.4,1.1,38.7-8.9l179.1-174H855.8L849,567h318L913.4,813.5c-15.7,15.3-36.6,23.5-58.2,23.5
	c-8.7,0-17.5-1.3-26.1-4.1c-29.9-9.5-51.1-34.1-55.4-64L707,301.4c-4.5-31.6-25.9-56.6-57.3-67c-31.4-10.4-64.3-3.4-88.2,18.7
	L222.8,567H685L691.2,609.6z M1047.5,387.9h-40.2V187.8h40.2l76.3,131.2h0.6V187.8h40.5v200.1h-39.6l-77.2-131.2h-0.6V387.9z"/>
</svg>
